<svg xmlns="http://www.w3.org/2000/svg" viewBox="0 0 180 180"><rect width="180" height="180" fill="#bf0a30"/><rect y="25.71" width="180" height="25.71" fill="#fff"/><rect y="77.14" width="180" height="25.71" fill="#fff"/><rect y="128.57" width="180" height="25.71" fill="#fff"/><rect width="73" height="79" fill="#002868"/><g fill="#fff"><circle cx="11" cy="14" r="3.5"/><circle cx="25" cy="14" r="3.5"/><circle cx="39" cy="14" r="3.5"/><circle cx="53" cy="14" r="3.5"/><circle cx="62" cy="14" r="3.5"/><circle cx="18" cy="26" r="3.5"/><circle cx="32" cy="26" r="3.5"/><circle cx="46" cy="26" r="3.5"/><circle cx="58" cy="26" r="3.5"/><circle cx="11" cy="38" r="3.5"/><circle cx="25" cy="38" r="3.5"/><circle cx="39" cy="38" r="3.5"/><circle cx="53" cy="38" r="3.5"/><circle cx="62" cy="38" r="3.5"/><circle cx="18" cy="50" r="3.5"/><circle cx="32" cy="50" r="3.5"/><circle cx="46" cy="50" r="3.5"/><circle cx="58" cy="50" r="3.5"/><circle cx="11" cy="62" r="3.5"/><circle cx="25" cy="62" r="3.5"/><circle cx="39" cy="62" r="3.5"/><circle cx="53" cy="62" r="3.5"/><circle cx="62" cy="62" r="3.5"/><circle cx="18" cy="74" r="3.5"/><circle cx="32" cy="74" r="3.5"/><circle cx="46" cy="74" r="3.5"/><circle cx="58" cy="74" r="3.5"/></g></svg>
